:version 1.10
:name ASF
:units
  mass 1
  length 1
  angle deg
:documentation
  ASF file generated by Kaydara
:root
  axis xyz
  order  tx ty tz rx ry rz
  position 0 0 0
  orientation 0 0 0
:bonedata
  begin
    id 1
    name LeftUpLegDummy
    direction 1 -2.30186e-007 -8.31532e-007
    length 2.93387
    axis 0 0 0 xyz
  end
  begin
    id 2
    name LeftUpLeg
    direction -1.82929e-007 -1 -1.48925e-009
    length 17.3336
    axis -3.48766 0.00143442 -0.000521554 xyz
    dof rx ry rz
  end
  begin
    id 3
    name LeftLeg
    direction -1.82929e-007 -1 -5.23717e-011
    length 14.9995
    axis 3.68178 -0.00654042 -0.000282425 xyz
    dof rx ry rz
  end
  begin
    id 4
    name LeftFoot
    direction 8.31532e-007 -4.54534e-011 1
    length 6.74421
    axis 1.87234e-006 4.66016e-005 -5.96866e-006 xyz
    dof rx ry rz
  end
  begin
    id 5
    name LeftToes
    direction 0.00818058 -0.00485161 0.999955
    length 3.85048
    axis 1.06247e-005 4.65869e-005 -5.96999e-006 xyz
    dof rx ry rz
  end
  begin
    id 6
    name SpineDummy
    direction -5.8607e-008 0.943407 -0.331637
    length 5.93572
    axis 0 0 0 xyz
  end
  begin
    id 7
    name Spine
    direction -1.04988e-007 0.999988 0.00495137
    length 10.1015
    axis -0.001389 0.000121417 6.61666e-006 xyz
    dof rx ry rz
  end
  begin
    id 8
    name Spine1
    direction 0 0 0
    length 0
    axis -0.001389 0.00012144 6.56766e-006 xyz
    dof rx ry rz
  end
  begin
    id 9
    name RightShoulderDummy
    direction -0.98348 0.17941 -0.0240696
    length 3.59882
    axis -0.001389 0.00012144 6.56766e-006 xyz
  end
  begin
    id 10
    name RightShoulder
    direction -0.978693 0.204882 0.0135597
    length 2.70001
    axis 0.215806 0.000203631 -0.00679732 xyz
    dof rx ry rz
  end
  begin
    id 11
    name RightArm
    direction -1 3.85509e-006 8.31394e-007
    length 10.2459
    axis -23.2009 -0.134239 -0.964098 xyz
    dof rx ry rz
  end
  begin
    id 12
    name RightForeArm
    direction -1 3.85569e-006 8.3129e-007
    length 8.16799
    axis -9.92322 0.0658061 0.17887 xyz
    dof rx ry rz
  end
  begin
    id 13
    name RightHand
    direction -0.992843 -0.0414604 0.112003
    length 5.28593
    axis -0.00960638 0.00330669 -0.185225 xyz
    dof rx ry rz
  end
  begin
    id 14
    name LeftShoulder1Dummy
    direction 0.983523 0.179172 -0.0240748
    length 3.59866
    axis -0.001389 0.00012144 6.56766e-006 xyz
  end
  begin
    id 15
    name LeftShoulder1
    direction 0.978627 0.205195 0.0135605
    length 2.70019
    axis -0.001389 0.00012144 6.57583e-006 xyz
    dof rx ry rz
  end
  begin
    id 16
    name LeftArm
    direction 1 3.51895e-006 -8.60188e-007
    length 10.2459
    axis -23.1894 0.134785 0.967513 xyz
    dof rx ry rz
  end
  begin
    id 17
    name LeftForeArm
    direction 1 3.51921e-006 -7.32029e-007
    length 8.16799
    axis -9.91835 -0.0656957 -0.177789 xyz
    dof rx ry rz
  end
  begin
    id 18
    name LeftHand
    direction 0.992938 -0.0411636 0.11126
    length 5.32135
    axis -0.00960237 -0.00340661 0.185177 xyz
    dof rx ry rz
  end
  begin
    id 19
    name HEadDummy
    direction 1.01974e-006 0.999861 -0.016675
    length 2.99946
    axis -0.001389 0.00012144 6.56766e-006 xyz
  end
  begin
    id 20
    name HEad
    direction -0.0222689 0.980941 0.193023
    length 5.12695
    axis -0.001389 0.00012144 6.56766e-006 xyz
    dof rx ry rz
  end
  begin
    id 21
    name RightUpLegDummy
    direction -1 2.30186e-007 8.31532e-007
    length 2.93387
    axis 0 0 0 xyz
  end
  begin
    id 22
    name RightUpLeg
    direction -1.82966e-007 -1 1.56832e-007
    length 17.3336
    axis -3.4909 -0.000906625 0.00028951 xyz
    dof rx ry rz
  end
  begin
    id 23
    name RightLeg
    direction -1.82786e-007 -1 -1.80317e-007
    length 14.9995
    axis 3.68513 0.0193739 -0.131021 xyz
    dof rx ry rz
  end
  begin
    id 24
    name RightFoot
    direction 8.31721e-007 -4.63324e-011 1
    length 6.74421
    axis 4.81691e-005 -0.120479 -0.188785 xyz
    dof rx ry rz
  end
  begin
    id 25
    name RightToes
    direction 0.00124746 -0.014064 0.9999
    length 3.85082
    axis 0.000481921 0.542163 -0.142575 xyz
    dof rx ry rz
  end
:hierarchy
  begin
    root LeftUpLegDummy SpineDummy RightUpLegDummy
    LeftUpLegDummy LeftUpLeg
    LeftUpLeg LeftLeg
    LeftLeg LeftFoot
    LeftFoot LeftToes
    SpineDummy Spine
    Spine Spine1
    Spine1 RightShoulderDummy LeftShoulder1Dummy HEadDummy
    RightShoulderDummy RightShoulder
    RightShoulder RightArm
    RightArm RightForeArm
    RightForeArm RightHand
    LeftShoulder1Dummy LeftShoulder1
    LeftShoulder1 LeftArm
    LeftArm LeftForeArm
    LeftForeArm LeftHand
    HEadDummy HEad
    RightUpLegDummy RightUpLeg
    RightUpLeg RightLeg
    RightLeg RightFoot
    RightFoot RightToes
  end

:SAMPLES-PER-SECOND 30
:FULLY-SPECIFIED
:DEGREES
255
root  -6.25703 34.267 1.19711 -12.3683 86.6109 -23.9476
LeftUpLeg  -9.43558 11.8459 -1.91161
LeftLeg  11.6399 8.99822 1.25122
LeftFoot  -4.56788 -0.0289973 -0.72705
LeftToes  -10.8338 6.91067e-007 1.07128e-007
Spine  2.34243 0.11116 -0.263381
Spine1  4.68835 0.224743 -0.539668
RightShoulder  0.0261619 6.76771 8.11104
RightArm  -28.0435 -25.6153 75.2595
RightForeArm  3.41937 19.9108 3.64826
RightHand  -1.84755 -14.2063 15.109
LeftShoulder1  0.0129491 -2.86676 -9.25214
LeftArm  -5.39989 29.1443 -70.83
LeftForeArm  -5.93922 -22.5327 -4.16573
LeftHand  -1.7949 12.771 -16.2976
HEad  -4.38559 -40.089 8.72801
RightUpLeg  -20.0688 -19.5733 3.90163
RightLeg  5.74694 -7.07603 -0.251816
RightFoot  11.3777 0.180542 -1.43458
RightToes  -30.3747 -0.14651 -0.254562
256
root  -6.0694 34.2759 1.40574 -4.0167 86.0146 -15.6489
LeftUpLeg  -9.25323 11.9611 -1.86869
LeftLeg  11.9949 9.50148 1.38035
LeftFoot  -4.3814 -0.0289411 -0.737752
LeftToes  -11.9292 6.91067e-007 1.07128e-007
Spine  2.35571 -0.123305 -0.0628143
Spine1  4.71231 -0.260346 -0.138083
RightShoulder  0.0280127 7.01899 8.2351
RightArm  -29.2746 -25.3266 75.3838
RightForeArm  3.85518 18.3919 3.34861
RightHand  -1.75975 -13.8919 14.7333
LeftShoulder1  0.0135413 -3.15752 -9.05982
LeftArm  -5.73062 27.4966 -71.2007
LeftForeArm  -3.24583 -20.7505 -3.80617
LeftHand  -1.69411 12.745 -15.4441
HEad  -3.48991 -39.2037 7.72459
RightUpLeg  -20.1334 -19.9196 4.03948
RightLeg  6.29649 -5.96158 -0.269363
RightFoot  10.3702 0.134803 -1.10781
RightToes  -28.8734 -0.13624 -0.24406
257
root  -5.88244 34.2807 1.63242 0.768091 85.6906 -10.9522
LeftUpLeg  -9.27186 12.0213 -1.7039
LeftLeg  12.6698 9.68061 1.5221
LeftFoot  -4.26981 -0.0273552 -0.733808
LeftToes  -13.2181 6.91067e-007 1.07128e-007
Spine  2.33978 -0.244668 0.199946
Spine1  4.67387 -0.522815 0.390833
RightShoulder  0.0296649 7.01554 8.20167
RightArm  -30.3039 -24.8269 75.4275
RightForeArm  4.91656 17.256 3.12882
RightHand  -1.56679 -13.4468 13.5959
LeftShoulder1  0.0140682 -3.17079 -8.92002
LeftArm  -5.87176 25.5889 -71.7391
LeftForeArm  0.44393 -18.8234 -3.42761
LeftHand  -1.57822 12.5178 -14.678
HEad  -2.05279 -38.7826 6.65205
RightUpLeg  -20.1314 -20.3544 4.21123
RightLeg  6.73576 -5.06741 -0.267828
RightFoot  9.44917 0.102649 -0.864352
RightToes  -28.0615 -0.130803 -0.23827
258
root  -5.70267 34.2914 1.86749 4.13051 85.5057 -7.70987
LeftUpLeg  -9.46127 12.0238 -1.49804
LeftLeg  13.559 9.84821 1.70427
LeftFoot  -4.08726 -0.0255607 -0.716321
LeftToes  -14.5956 6.91067e-007 1.07128e-007
Spine  2.35167 -0.264949 0.461647
Spine1  4.68811 -0.585747 0.922701
RightShoulder  0.0309387 6.91843 8.13453
RightArm  -31.1722 -24.1861 75.2943
RightForeArm  6.63003 16.611 3.00625
RightHand  -1.39481 -13.2396 12.3395
LeftShoulder1  0.0144411 -3.05341 -8.82511
LeftArm  -6.73113 23.617 -72.2998
LeftForeArm  4.15566 -17.2015 -3.11594
LeftHand  -1.50539 12.4346 -14.1151
HEad  -0.504413 -38.6047 5.87439
RightUpLeg  -20.0941 -20.7399 4.4011
RightLeg  7.06019 -4.33564 -0.253683
RightFoot  8.69827 0.080971 -0.687033
RightToes  -27.2968 -0.125756 -0.232746
259
root  -5.53254 34.3197 2.1013 8.5956 85.5239 -3.33957
LeftUpLeg  -9.67953 11.8091 -1.41101
LeftLeg  14.4433 10.0743 1.90256
LeftFoot  -3.65513 -0.0210267 -0.658984
LeftToes  -16.1549 6.91067e-007 1.07128e-007
Spine  2.39045 -0.279945 0.653842
Spine1  4.75643 -0.635357 1.31368
RightShoulder  0.0316968 6.89826 8.24594
RightArm  -31.7226 -23.433 74.7981
RightForeArm  8.47706 15.919 2.87548
RightHand  -1.24552 -13.1555 11.1346
LeftShoulder1  0.0145718 -2.78686 -8.45447
LeftArm  -7.81043 22.1083 -72.9514
LeftForeArm  6.63669 -16.8675 -3.05394
LeftHand  -1.39033 12.0904 -13.4345
HEad  0.868474 -38.751 5.6315
RightUpLeg  -19.7518 -20.877 4.35138
RightLeg  6.87249 -4.03763 -0.222956
RightFoot  8.24359 0.0711956 -0.610334
RightToes  -27.0748 -0.123881 -0.230675
260
root  -5.38202 34.3567 2.32859 13.7682 85.5333 1.74867
LeftUpLeg  -9.93837 11.6288 -1.36855
LeftLeg  15.3222 10.1328 2.07388
LeftFoot  -3.04077 -0.0147525 -0.555822
LeftToes  -18.0267 6.91067e-007 1.07128e-007
Spine  2.43821 -0.233921 0.814357
Spine1  4.84788 -0.552652 1.63509
RightShoulder  0.0321289 6.9227 8.28268
RightArm  -31.7843 -22.7729 74.1572
RightForeArm  10.1375 15.6162 2.81906
RightHand  -1.13209 -12.7785 10.4489
LeftShoulder1  0.0143719 -2.59362 -8.11116
LeftArm  -8.09216 21.6767 -73.3232
LeftForeArm  7.70508 -19.1186 -3.49325
LeftHand  -1.24707 11.7778 -12.4092
HEad  1.35428 -39.0609 5.50761
RightUpLeg  -19.2863 -20.9501 4.25073
RightLeg  6.36098 -3.90747 -0.180836
RightFoot  7.95801 0.0653969 -0.572108
RightToes  -26.7516 -0.122204 -0.228767
261
root  -5.24677 34.3888 2.54931 19.7972 85.316 7.67515
LeftUpLeg  -10.3247 11.7217 -1.45727
LeftLeg  16.3974 10.0749 2.2586
LeftFoot  -2.54464 -0.0103356 -0.465368
LeftToes  -19.4042 6.91067e-007 1.07128e-007
Spine  2.46789 -0.061911 0.950609
Spine1  4.90519 -0.213708 1.91388
RightShoulder  0.0322673 7.14077 8.22594
RightArm  -31.5463 -22.4075 73.404
RightForeArm  10.4366 15.6432 2.82438
RightHand  -1.1402 -12.8375 10.474
LeftShoulder1  0.0137529 -2.41765 -8.17825
LeftArm  -7.20356 21.5997 -73.1777
LeftForeArm  9.09285 -21.7347 -4.01988
LeftHand  -1.11869 11.3605 -11.5746
HEad  0.612251 -39.5037 5.43048
RightUpLeg  -18.9882 -21.0096 4.09136
RightLeg  6.02542 -3.65847 -0.14784
RightFoot  7.63303 0.0595479 -0.515032
RightToes  -26.0901 -0.117945 -0.223894
262
root  -5.10403 34.4128 2.76516 24.508 84.9741 12.3179
LeftUpLeg  -10.6488 11.8963 -1.49739
LeftLeg  17.4676 9.93372 2.42169
LeftFoot  -2.07944 -0.00684804 -0.377341
LeftToes  -20.8837 6.91067e-007 1.07128e-007
Spine  2.48228 0.178043 1.03944
Spine1  4.93578 0.265304 2.09979
RightShoulder  0.031691 7.47926 8.11977
RightArm  -31.0669 -22.1762 72.7756
RightForeArm  10.0258 15.8238 2.85844
RightHand  -1.21857 -13.1601 10.8994
LeftShoulder1  0.012554 -2.26752 -8.15868
LeftArm  -6.6092 21.2962 -73.0009
LeftForeArm  9.6191 -22.9812 -4.27761
LeftHand  -1.04918 11.0809 -11.1476
HEad  -0.872243 -40.1819 5.5753
RightUpLeg  -18.8434 -21.2034 4.00327
RightLeg  6.07636 -3.22139 -0.132932
RightFoot  7.03605 0.0521648 -0.420707
RightToes  -24.9723 -0.110876 -0.215549
263
root  -4.95409 34.4276 2.97456 27.9947 84.767 15.8152
LeftUpLeg  -11.0533 11.8366 -1.41457
LeftLeg  18.8927 9.84004 2.65825
LeftFoot  -1.7245 -0.00470375 -0.312544
LeftToes  -22.4837 6.91067e-007 1.07128e-007
Spine  2.50052 0.36432 1.10738
Spine1  4.97613 0.641523 2.2386
RightShoulder  0.0299838 7.64381 7.79808
RightArm  -30.5971 -21.6249 72.5549
RightForeArm  10.6319 15.9763 2.88785
RightHand  -1.30664 -13.591 11.297
LeftShoulder1  0.0108813 -2.17209 -7.9422
LeftArm  -6.75874 21.1493 -73.0547
LeftForeArm  9.8915 -23.8193 -4.45362
LeftHand  -0.964938 10.6158 -10.7211
HEad  -2.72396 -40.8569 5.56101
RightUpLeg  -18.6095 -21.5274 3.9482
RightLeg  6.18993 -2.74495 -0.118558
RightFoot  6.4218 0.0453004 -0.329791
RightToes  -24.612 -0.108633 -0.21283
